<?xml version="1.0" encoding="UTF-8"?>
<svg version="1.1" xmlns="http://www.w3.org/2000/svg" width="880" height="1347">
<path d="M0 0 C2.96155081 1.55925137 5.64899668 3.43892149 8.375 5.375 C9.97838799 6.47899635 11.58257312 7.58183575 13.1875 8.68359375 C14.39599609 9.52059814 14.39599609 9.52059814 15.62890625 10.37451172 C19.16604025 12.7993715 22.76585283 15.1217624 26.375 17.4375 C27.78271808 18.34479458 29.19026747 19.25235094 30.59765625 20.16015625 C31.31195801 20.6205127 32.02625977 21.08086914 32.76220703 21.55517578 C36.78500927 24.1524858 40.79844023 26.76420727 44.8125 29.375 C46.06389771 30.18868042 46.06389771 30.18868042 47.34057617 31.01879883 C50.74772591 33.23428052 54.15461571 35.4501618 57.56152344 37.66601562 C60.10341379 39.31916709 62.64542373 40.97213444 65.1875 42.625 C66.0120166 43.16116943 66.8365332 43.69733887 67.68603516 44.24975586 C71.6938255 46.85493842 75.70378649 49.45666499 79.71875 52.05078125 C80.47260986 52.53788574 81.22646973 53.02499023 82.00317383 53.52685547 C83.39583772 54.42624207 84.78886595 55.32506494 86.18237305 56.22314453 C87.42322854 57.02433674 88.65673694 57.83708019 89.88084084 58.6636399 C91.98378569 60.04780174 91.98378569 60.04780174 94.30969137 61.10094082 C96.97828977 62.50232412 98.91947214 63.80751597 101 66 C102.34476211 70.33548865 102.20099507 74.54951691 102.12025452 79.05978394 C102.12831386 80.4055508 102.14032225 81.75129882 102.15593141 83.09699929 C102.18736097 86.78971108 102.16283933 90.48025182 102.12913358 94.17286539 C102.1025876 98.15653573 102.12798756 102.13991514 102.14706421 106.12358093 C102.17300373 113.02363366 102.16606489 119.92302452 102.13676643 126.82305527 C102.09445399 136.79919122 102.10177025 146.77480569 102.12118178 156.75098993 C102.15132862 172.93663337 102.1413644 189.12199358 102.10620117 205.30761719 C102.07213019 221.02999199 102.05693407 236.75219826 102.06713867 252.47460938 C102.06776116 253.4438066 102.06838364 254.41300382 102.06902499 255.41157065 C102.07226432 260.27377026 102.0758749 265.13596951 102.07967007 269.99816871 C102.11067237 310.33221825 102.0765893 350.66602046 102 391 C103.03406982 390.51007568 104.06813965 390.02015137 105.13354492 389.51538086 C108.97562171 387.69948348 112.82592402 385.90165264 116.67895508 384.10913086 C118.34466327 383.33115192 120.00810772 382.54830671 121.66918945 381.76049805 C124.05880957 380.62819673 126.45605428 379.51371015 128.85546875 378.40234375 C129.5952446 378.047202 130.33502045 377.69206024 131.09721375 377.32615662 C135.08794611 375.50040768 137.66744607 374.3936353 142 376 C144.36157227 377.28417969 144.36157227 377.28417969 146.81640625 378.921875 C148.19481689 379.83211426 148.19481689 379.83211426 149.60107422 380.76074219 C150.57834473 381.41719727 151.55561523 382.07365234 152.5625 382.75 C154.63916229 384.12524258 156.71598815 385.50023819 158.79296875 386.875 C159.83501465 387.56851562 160.87706055 388.26203125 161.95068359 388.9765625 C166.40517652 391.93243419 170.88880454 394.84256711 175.375 397.75 C177.0182757 398.81763672 178.66150562 399.8853439 180.3046875 400.953125 C185.38860689 404.25361462 190.47772095 407.54604485 195.56787109 410.83691406 C201.89789987 414.93063854 208.21844187 419.03889355 214.53662109 423.15087891 C218.58388142 425.7839133 222.63439679 428.4115031 226.6953125 431.0234375 C227.44296875 431.50490234 228.190625 431.98636719 228.9609375 432.48242188 C230.33746138 433.36821748 231.71495879 434.25250339 233.09375 435.13476562 C234.34436884 435.94001102 235.58090672 436.76767686 236.80013812 437.61969942 C238.98159572 439.0830625 238.98159572 439.0830625 241.53508508 439.99533707 C244.92534764 441.61308767 246.70759431 442.99062705 249 446 C251.03259249 453.20324249 250.30318967 461.15386709 250.20254517 468.55711365 C250.20690516 470.92255257 250.21565959 473.2879868 250.22843683 475.65339524 C250.24615289 480.80039278 250.23277664 485.94634729 250.19205475 491.09317398 C250.13167256 498.74613443 250.12869915 506.39836627 250.13747464 514.0515215 C250.150611 526.9252947 250.11721067 539.79855449 250.05730057 552.67217827 C249.99813309 565.41889422 249.95964181 578.16539634 249.94877243 590.91224861 C249.94808503 591.70475779 249.94739764 592.49726697 249.94668941 593.31379158 C249.94330609 597.33853437 249.94029225 601.36327734 249.93742065 605.38802052 C249.91641566 633.89643984 249.84903994 662.40457983 249.75439453 690.9128418 C249.66255314 718.6084647 249.59171568 746.30401118 249.54931641 773.99975586 C249.54800114 774.85343516 249.54668588 775.70711446 249.54533076 776.58666282 C249.53214558 785.15964968 249.51938744 793.73263712 249.50694217 802.30562508 C249.48157994 819.76983995 249.45336741 837.23404984 249.4234314 854.69825745 C249.4220585 855.50123608 249.4206856 856.30421472 249.41927109 857.13152604 C249.32726208 910.75446798 249.16860183 964.37725089 249 1018 C244.05344742 1020.27363377 239.1067968 1022.54705408 234.1600647 1024.82029724 C232.48592639 1025.5896716 230.81181246 1026.35909901 229.13772583 1027.12858582 C213.21625289 1034.44674358 197.28162286 1041.73589581 181.34277344 1049.01611328 C175.51950853 1051.67611306 169.69712394 1054.33803792 163.87475586 1057 C160.97205 1058.32709915 158.06921252 1059.65390974 155.16625977 1060.98046875 C148.42663343 1064.06047358 141.68779861 1067.14217296 134.95181274 1070.23013306 C131.82382223 1071.66395818 128.69537408 1073.09678328 125.56689453 1074.52954102 C124.0980804 1075.20254866 122.62948219 1075.87602781 121.16113281 1076.55004883 C117.12541701 1078.40250081 113.08613336 1080.24665972 109.0401001 1082.07647705 C107.62702272 1082.71615615 106.21493707 1083.35802884 104.8036499 1084.00164795 C102.61599812 1084.99714268 100.423912 1085.98218656 98.23046875 1086.96484375 C97.56372635 1087.27007462 96.89698395 1087.57530548 96.21003723 1087.88978577 C92.8268718 1089.39189671 90.77808171 1090 87 1090 C85.30320738 1088.36401394 83.64164403 1086.69131914 82 1085 C79.6267739 1083.2953376 77.13209531 1081.81109522 74.625 1080.3125 C73.18374467 1079.4315681 71.74366565 1078.54870921 70.3046875 1077.6640625 C69.58120117 1077.2196582 68.85771484 1076.77525391 68.11230469 1076.31738281 C64.94521083 1074.34215877 61.84521819 1072.27295767 58.75 1070.1875 C50.41651801 1064.58596142 41.99315656 1059.12593516 33.56738281 1053.66455078 C26.94479226 1049.3708248 20.32862798 1045.06719653 13.71240234 1040.76367188 C11.79119173 1039.51445266 9.8696045 1038.26581255 7.94775391 1037.01757812 C4.79763647 1034.97138109 1.64872383 1032.92334073 -1.5 1030.875 C-2.48589111 1030.2351416 -3.47178223 1029.5952832 -4.48754883 1028.93603516 C-5.87043091 1028.03570557 -5.87043091 1028.03570557 -7.28125 1027.1171875 C-8.50424805 1026.32223877 -8.50424805 1026.32223877 -9.75195312 1025.51123047 C-10.86473633 1024.76317139 -10.86473633 1024.76317139 -12 1024 C-12.69589241 1023.61705204 -13.39178483 1023.23410407 -14.10876489 1022.83955163 C-16 1021 -16 1021 -16.50320601 1017.92794019 C-16.5047249 1016.65018128 -16.50624378 1015.37242237 -16.50780869 1014.05594349 C-16.51411244 1013.34167663 -16.52041619 1012.62740978 -16.52691096 1011.89149848 C-16.54327433 1009.47949317 -16.5309711 1007.0684676 -16.51898193 1004.65644836 C-16.52485287 1002.91731165 -16.53247764 1001.17818011 -16.541713 999.43905801 C-16.56205835 994.64568319 -16.55739726 989.85260288 -16.54880548 985.05920446 C-16.54387785 979.89557541 -16.56192404 974.73202197 -16.57722473 969.56842041 C-16.60058299 960.6173717 -16.60928324 951.66640411 -16.60811615 942.71532631 C-16.60644977 929.77348171 -16.62675243 916.83174553 -16.65247145 903.88992979 C-16.69359657 882.8943172 -16.71687655 861.89872405 -16.72900391 840.90307617 C-16.74082475 820.5039686 -16.7610067 800.10489767 -16.79248047 779.70581055 C-16.79441657 778.44907358 -16.79635267 777.19233661 -16.79834744 775.89751671 C-16.80811173 769.59303439 -16.81804089 763.28855235 -16.82805204 756.98407042 C-16.91093245 704.65606266 -16.96378491 652.32805912 -17 600 C-28.22 604.95 -39.44 609.9 -51 615 C-51.33 788.91 -51.66 962.82 -52 1142 C-67.7414966 1149.8707483 -67.7414966 1149.8707483 -73.35546875 1152.40234375 C-73.97234055 1152.68158691 -74.58921234 1152.96083008 -75.22477722 1153.24853516 C-76.53438314 1153.84102671 -77.84453261 1154.43231825 -79.1552124 1155.02243042 C-82.00973696 1156.30772518 -84.86137016 1157.59938339 -87.71325684 1158.89051819 C-89.21417808 1159.5699686 -90.715237 1160.24911495 -92.21643066 1160.92796326 C-100.27968345 1164.57509014 -108.32784738 1168.2550195 -116.375 1171.9375 C-117.83942401 1172.60736855 -119.30386091 1173.27720894 -120.76831055 1173.94702148 C-123.70986857 1175.29248941 -126.6513471 1176.63813092 -129.59277344 1177.98388672 C-133.98075759 1179.99135243 -138.36922183 1181.99776687 -142.7578125 1184.00390625 C-143.48037231 1184.33424866 -144.20293213 1184.66459106 -144.9473877 1185.00494385 C-148.57033268 1186.6612079 -152.19357438 1188.31681733 -155.81738281 1189.97119141 C-162.62642239 1193.08055161 -169.43233874 1196.1962847 -176.22869873 1199.33328247 C-179.42391711 1200.80765061 -182.62071018 1202.27858643 -185.81762695 1203.74926758 C-187.33485529 1204.44840306 -188.85131829 1205.14920227 -190.36694336 1205.85180664 C-197.79944241 1209.29686701 -205.13339706 1212.64352317 -213 1215 C-213.26466064 1214.38592285 -213.52932129 1213.7718457 -213.80200195 1213.13916016 C-215.69144922 1209.76533971 -218.9418839 1208.28371691 -222.1875 1206.375 C-223.65613238 1205.48502459 -225.12355497 1204.59305012 -226.58984375 1203.69921875 C-227.33218262 1203.24853027 -228.07452148 1202.7978418 -228.83935547 1202.33349609 C-232.03044802 1200.3640331 -235.14230842 1198.28526632 -238.25 1196.1875 C-243.96701653 1192.34401909 -249.72043771 1188.56129828 -255.5 1184.8125 C-256.3362793 1184.27004639 -257.17255859 1183.72759277 -258.03417969 1183.16870117 C-259.78188438 1182.03513056 -261.52960612 1180.90158623 -263.27734375 1179.76806641 C-268.02311734 1176.68620734 -272.76121271 1173.59258606 -277.5 1170.5 C-284.97742373 1165.62232403 -292.45521937 1160.7452232 -299.9375 1155.875 C-300.73542969 1155.35486328 -301.53335937 1154.83472656 -302.35546875 1154.29882812 C-303.1134375 1153.80576172 -303.87140625 1153.31269531 -304.65234375 1152.8046875 C-305.30195068 1152.38171387 -305.95155762 1151.95874023 -306.62084961 1151.52294922 C-308.84264153 1149.96585354 -308.84264153 1149.96585354 -310.94851732 1149.34189254 C-313.63159444 1148.21577953 -315.1046456 1147.23235174 -317 1145 C-318.257077 1139.49923128 -318.04468033 1133.98590354 -317.96203613 1128.37797546 C-317.96552399 1126.63298426 -317.97252728 1124.88799712 -317.98274946 1123.14303237 C-318.00066893 1118.3423301 -317.96859899 1113.54305107 -317.92852497 1108.74253023 C-317.89403036 1103.56806398 -317.90566445 1098.39368032 -317.91174316 1093.21913147 C-317.9159414 1084.25211705 -317.89080647 1075.2855677 -317.84584045 1066.31867027 C-317.78086953 1053.35406764 -317.75999359 1040.38969027 -317.74993652 1027.42494247 C-317.73242028 1006.39148449 -317.67916132 985.35827448 -317.60351562 964.32495117 C-317.53010205 943.89104454 -317.47346557 923.45720522 -317.43945312 903.02319336 C-317.43735134 901.76399484 -317.43524955 900.50479633 -317.43308407 899.20744028 C-317.4226439 892.89051581 -317.4125342 886.57359086 -317.40258884 880.25666559 C-317.31963263 827.83760566 -317.17870782 775.41881491 -317 723 C-317.93271729 723.4439209 -318.86543457 723.8878418 -319.82641602 724.34521484 C-323.3108359 726.00185076 -326.79858803 727.65136603 -330.28735352 729.29882812 C-331.79249382 730.01077774 -333.29674223 730.72461627 -334.80004883 731.44042969 C-336.96980778 732.47316879 -339.14275838 733.49891358 -341.31640625 734.5234375 C-341.98023819 734.84122162 -342.64407013 735.15900574 -343.32801819 735.48641968 C-343.96815353 735.7865799 -344.60828888 736.08674011 -345.26782227 736.39599609 C-346.09722069 736.78904434 -346.09722069 736.78904434 -346.94337463 737.19003296 C-349.88435648 738.34828881 -352.9607734 739.13164954 -356 740 C-356 912.59 -356 1085.18 -356 1263 C-363.425 1266.465 -363.425 1266.465 -371 1270 C-375.6882354 1272.20609899 -375.6882354 1272.20609899 -380.37617493 1274.41282654 C-396.74934116 1282.12179616 -413.19125151 1289.66780581 -429.67697144 1297.1325531 C-436.8550686 1300.38423185 -444.02246068 1303.65920313 -451.18844604 1306.93746948 C-453.3623819 1307.93172906 -455.53673207 1308.92507737 -457.71118164 1309.91821289 C-464.57613134 1313.05469965 -471.43737175 1316.19883286 -478.28933716 1319.36360168 C-481.50154978 1320.84669474 -484.71545084 1322.32610783 -487.92950439 1323.8052063 C-489.45961266 1324.51061603 -490.98889016 1325.21783095 -492.51727295 1325.92697144 C-494.63965458 1326.91160057 -496.76481013 1327.88999763 -498.890625 1328.8671875 C-499.8180098 1329.3004258 -499.8180098 1329.3004258 -500.76412964 1329.74241638 C-504.78851632 1331.58275273 -508.73545177 1332.87764287 -513 1334 C-513 1334.99 -513 1335.98 -513 1337 C-517.46145938 1336.4388553 -520.30598418 1334.75308058 -524.0234375 1332.2734375 C-524.59743286 1331.89395966 -525.17142822 1331.51448181 -525.76281738 1331.12350464 C-527.63846788 1329.8812434 -529.5065953 1328.62812656 -531.375 1327.375 C-532.68449271 1326.50533222 -533.9945579 1325.63652588 -535.30517578 1324.76855469 C-537.9542991 1323.01330134 -540.60106257 1321.25457728 -543.24609375 1319.49316406 C-548.43260106 1316.04328699 -553.65264871 1312.64528295 -558.875 1309.25 C-560.73319149 1308.03924445 -562.59126497 1306.82830778 -564.44921875 1305.6171875 C-565.81506104 1304.72725098 -565.81506104 1304.72725098 -567.20849609 1303.81933594 C-571.06250082 1301.30752527 -574.91511099 1298.79357914 -578.76782227 1296.27978516 C-583.51108488 1293.18530109 -588.25539996 1290.09243296 -593 1287 C-593.93134766 1286.39285156 -594.86269531 1285.78570313 -595.82226562 1285.16015625 C-598.52678385 1283.39757604 -601.23202169 1281.63610607 -603.9375 1279.875 C-604.73567139 1279.35470215 -605.53384277 1278.8344043 -606.35620117 1278.29833984 C-607.11392822 1277.80543457 -607.87165527 1277.3125293 -608.65234375 1276.8046875 C-609.30195068 1276.38171387 -609.95155762 1275.95874023 -610.62084961 1275.52294922 C-612.87468608 1274.0055823 -612.87468608 1274.0055823 -614.9477317 1273.0937586 C-620.54099514 1270.24098943 -620.54099514 1270.24098943 -621.74192101 1266.99410375 C-622.02214079 1264.44519535 -622.04384652 1261.99992139 -621.98438263 1259.4360075 C-621.99361338 1258.46280016 -622.00284414 1257.48959281 -622.01235461 1256.48689434 C-622.03363675 1253.20532011 -621.99756457 1249.92684731 -621.96203613 1246.64543152 C-621.96552286 1244.27759813 -621.97252404 1241.90976773 -621.98274946 1239.54195386 C-621.99693843 1234.38366506 -621.98618448 1229.22604148 -621.9536438 1224.06786156 C-621.90539186 1216.39792518 -621.90295447 1208.72845473 -621.90997971 1201.05839425 C-621.92049528 1188.15681717 -621.89374364 1175.25556766 -621.84584045 1162.35408592 C-621.79852364 1149.57781543 -621.76771688 1136.80168134 -621.75901794 1124.02532387 C-621.75819307 1122.83427436 -621.75819307 1122.83427436 -621.75735153 1121.61916324 C-621.75464491 1117.58676242 -621.75223382 1113.55436149 -621.74993652 1109.52196041 C-621.73312782 1080.95147771 -621.67921403 1052.38117328 -621.60351562 1023.81079102 C-621.530055 996.05298817 -621.47337888 968.29523408 -621.43945312 940.53735352 C-621.43840092 939.68191711 -621.43734871 938.8264807 -621.43626461 937.94512198 C-621.42571656 929.35457228 -621.41551003 920.76402221 -621.40555374 912.17347181 C-621.38526337 894.67312512 -621.36269336 877.17278162 -621.33874512 859.67243958 C-621.3376468 858.86778087 -621.33654848 858.06312217 -621.33541688 857.23407987 C-621.26179656 803.48931172 -621.13486696 749.74464507 -621 696 C-620.48911976 695.7743187 -619.97823953 695.54863741 -619.45187807 695.31611729 C-614.07345308 692.94017221 -608.69509756 690.56406992 -603.31678009 688.18788147 C-601.31684831 687.3043176 -599.31689957 686.42079213 -597.31693268 685.53730774 C-584.19802662 679.74199966 -571.08271582 673.93897167 -557.9810791 668.10470581 C-537.71242548 659.08004415 -517.4241715 650.10001435 -497.12416077 641.14613342 C-492.66016568 639.17650583 -488.19846449 637.20187309 -483.74026489 635.21916199 C-481.90449 634.4028803 -480.06798408 633.58824324 -478.23144531 632.77368164 C-476.11101303 631.83306592 -473.99177255 630.88975651 -471.87402344 629.94311523 C-470.97586914 629.54552002 -470.07771484 629.1479248 -469.15234375 628.73828125 C-468.38913818 628.39837158 -467.62593262 628.05846191 -466.83959961 627.70825195 C-465 627 -465 627 -463 627 C-463 483.78 -463 340.56 -463 193 C-458.71 191.35 -454.42 189.7 -450 188 C-447.12207672 186.76211801 -444.26773207 185.512097 -441.421875 184.20703125 C-440.66403214 183.86356659 -439.90618927 183.52010193 -439.12538147 183.16622925 C-437.50582026 182.43206868 -435.88693956 181.69640523 -434.26870728 180.95932007 C-429.86934732 178.95619953 -425.4640809 176.96616353 -421.05859375 174.9765625 C-420.14853073 174.56542709 -419.23846771 174.15429169 -418.30082703 173.73069763 C-408.5025416 169.31183763 -398.66020343 164.99482365 -388.8125 160.6875 C-377.25046397 155.62770021 -365.69944974 150.54788104 -354.1875 145.375 C-353.07076904 144.87556885 -351.95403809 144.3761377 -350.8034668 143.86157227 C-344.83611537 141.18951592 -338.88337875 138.49024092 -332.94642639 135.75143433 C-329.65366112 134.23605732 -326.35461111 132.73468082 -323.05459595 131.23516846 C-321.45044301 130.50217415 -319.84910344 129.76298741 -318.25082397 129.01727295 C-316.0204943 127.97732166 -313.78128676 126.95930846 -311.5390625 125.9453125 C-310.87990341 125.63148621 -310.22074432 125.31765991 -309.54161072 124.99432373 C-304.96493913 122.96057376 -301.84222825 122.80999195 -297 124 C-294.71131656 125.27760683 -292.72842856 126.53545255 -290.625 128.0625 C-289.30273822 128.98198729 -287.97835827 129.89843295 -286.65234375 130.8125 C-285.91870605 131.32039062 -285.18506836 131.82828125 -284.42919922 132.3515625 C-279.75014302 135.52673712 -274.9601342 138.53068246 -270.1875 141.5625 C-260.14117328 147.96686149 -250.1521911 154.45191885 -240.18823242 160.98339844 C-234.82156673 164.50121585 -229.45053373 168.01111791 -224.05664062 171.48706055 C-221.4001629 173.19907593 -218.74822024 174.91800615 -216.09765625 176.63916016 C-214.58587636 177.6199168 -213.07268049 178.59849201 -211.55859375 179.57568359 C-209.03352527 181.20878609 -206.516116 182.85314643 -204 184.5 C-202.82244141 185.2576062 -202.82244141 185.2576062 -201.62109375 186.03051758 C-200.54021484 186.74244263 -200.54021484 186.74244263 -199.4375 187.46875 C-198.79683594 187.88576172 -198.15617187 188.30277344 -197.49609375 188.73242188 C-196 190 -196 190 -195 193 C-194.91308217 194.80799007 -194.8862773 196.61910438 -194.89256954 198.42917156 C-194.89406189 199.56376487 -194.89555424 200.69835819 -194.89709181 201.86733311 C-194.9038956 203.11926184 -194.91069939 204.37119056 -194.91770935 205.66105652 C-194.92140224 207.00007988 -194.92465174 208.33910453 -194.92749459 209.67812997 C-194.93661256 213.36548691 -194.95204462 217.05279493 -194.96847737 220.74012554 C-194.98508933 224.71351382 -194.99588876 228.68691831 -195.00738525 232.6603241 C-195.02811096 239.54712 -195.05253963 246.43389483 -195.07946587 253.32066917 C-195.11839161 263.27785401 -195.15175995 273.23505133 -195.18376113 283.19226054 C-195.23582922 299.3462061 -195.29240726 315.5001326 -195.35180664 331.65405273 C-195.40950643 347.34838112 -195.46509143 363.04271464 -195.51782227 378.73706055 C-195.52107198 379.70405894 -195.5243217 380.67105734 -195.5276699 381.66735872 C-195.5439593 386.51838579 -195.56020702 391.36941299 -195.57643402 396.22044027 C-195.71115981 436.48031703 -195.85319853 476.74016557 -196 517 C-194.9644397 516.51587646 -194.9644397 516.51587646 -193.90795898 516.02197266 C-190.75359709 514.55097736 -187.59560825 513.08793376 -184.4375 511.625 C-183.35146484 511.11710938 -182.26542969 510.60921875 -181.14648438 510.0859375 C-180.08623047 509.59609375 -179.02597656 509.10625 -177.93359375 508.6015625 C-176.4803772 507.92601318 -176.4803772 507.92601318 -174.99780273 507.23681641 C-171.75966772 505.90084507 -168.36812627 504.96232179 -165 504 C-165 360.45 -165 216.9 -165 69 C-120.4024231 48.82490569 -120.4024231 48.82490569 -100.69921875 40.3515625 C-91.64745038 36.4457939 -82.67089875 32.37235406 -73.6875 28.3125 C-59.26382067 21.79511822 -44.80678072 15.35890314 -30.3125 9 C-28.97582779 8.41310898 -28.97582779 8.41310898 -27.6121521 7.81436157 C-25.09221427 6.70838512 -22.57166452 5.60381956 -20.05078125 4.5 C-19.30680084 4.17376144 -18.56282043 3.84752289 -17.79629517 3.51139832 C-15.86677205 2.66814862 -13.93401377 1.83288389 -12 1 C-11.07678955 0.59700684 -10.1535791 0.19401367 -9.20239258 -0.22119141 C-5.75922056 -1.4387636 -3.51801886 -0.91098173 0 0 Z " fill="#05BEBF" transform="translate(625,6)"/>
<path d="M0 0 C2.28868344 1.27760683 4.27157144 2.53545255 6.375 4.0625 C7.69726178 4.98198729 9.02164173 5.89843295 10.34765625 6.8125 C11.44811279 7.57433594 11.44811279 7.57433594 12.57080078 8.3515625 C17.24985698 11.52673712 22.0398658 14.53068246 26.8125 17.5625 C36.85882672 23.96686149 46.8478089 30.45191885 56.81176758 36.98339844 C62.17843327 40.50121585 67.54946627 44.01111791 72.94335938 47.48706055 C75.5998371 49.19907593 78.25177976 50.91800615 80.90234375 52.63916016 C82.41412364 53.6199168 83.92731951 54.59849201 85.44140625 55.57568359 C87.96647473 57.20878609 90.483884 58.85314643 93 60.5 C93.78503906 61.0050708 94.57007813 61.5101416 95.37890625 62.03051758 C96.09949219 62.50513428 96.82007813 62.97975098 97.5625 63.46875 C98.20316406 63.88576172 98.84382813 64.30277344 99.50390625 64.73242188 C101 66 101 66 102 69 C100.72253906 69.32871094 99.44507813 69.65742188 98.12890625 69.99609375 C90.62391302 72.25508226 83.60754207 75.62758209 76.49804688 78.88842773 C72.0452594 80.93013778 67.58265925 82.95021854 63.12109375 84.97265625 C62.19948456 85.39100739 61.27787537 85.80935852 60.32833862 86.24038696 C50.75600515 90.5787463 41.13097774 94.7938798 31.5 99 C17.71481662 105.02711314 3.9655544 111.12853804 -9.75 117.3125 C-10.57832336 117.68582458 -11.40664673 118.05914917 -12.2600708 118.44378662 C-19.35177276 121.64057504 -26.44153301 124.84164713 -33.52832031 128.04931641 C-37.00541533 129.62311708 -40.48393591 131.19372295 -43.96350098 132.76205444 C-45.82689251 133.60328189 -47.68836194 134.44866076 -49.54980469 135.29418945 C-50.64454102 135.78749756 -51.73927734 136.28080566 -52.8671875 136.7890625 C-53.81706543 137.21912598 -54.76694336 137.64918945 -55.74560547 138.09228516 C-58 139 -58 139 -60 139 C-60 281.89 -60 424.78 -60 572 C-62.31 572.66 -64.62 573.32 -67 574 C-67 574.66 -67 575.32 -67 576 C-69.97 576.66 -72.94 577.32 -76 578 C-76 578.66 -76 579.32 -76 580 C-78.97 580.66 -81.94 581.32 -85 582 C-85 582.66 -85 583.32 -85 584 C-85.63164062 584.21624023 -86.26328125 584.43248047 -86.9140625 584.65527344 C-95.44686912 587.65835415 -103.62106419 591.33188624 -111.84228516 595.09277344 C-113.62188717 595.90508711 -115.40464926 596.7104666 -117.1875 597.515625 C-118.75564453 598.23153809 -118.75564453 598.23153809 -120.35546875 598.96191406 C-123 600 -123 600 -126 600 C-126 600.66 -126 601.32 -126 602 C-128.97 602.66 -131.94 603.32 -135 604 C-135 604.66 -135 605.32 -135 606 C-137.97 606.66 -140.94 607.32 -144 608 C-144 608.66 -144 609.32 -144 610 C-146.97 610.66 -149.94 611.32 -153 612 C-153 612.66 -153 613.32 -153 614 C-155.97 614.66 -158.94 615.32 -162 616 C-162 616.66 -162 617.32 -162 618 C-164.97 618.66 -167.94 619.32 -171 620 C-171 620.66 -171 621.32 -171 622 C-173.97 622.66 -176.94 623.32 -180 624 C-180 624.66 -180 625.32 -180 626 C-182.97 626.66 -185.94 627.32 -189 628 C-189 628.66 -189 629.32 -189 630 C-191.31 630.33 -193.62 630.66 -196 631 C-196 631.66 -196 632.32 -196 633 C-198.97 633.66 -201.94 634.32 -205 635 C-205 635.66 -205 636.32 -205 637 C-205.63808594 637.10957031 -206.27617187 637.21914063 -206.93359375 637.33203125 C-208.17302734 637.56986328 -208.17302734 637.56986328 -209.4375 637.8125 C-210.26121094 637.96332031 -211.08492188 638.11414063 -211.93359375 638.26953125 C-212.61550781 638.51058594 -213.29742187 638.75164063 -214 639 C-214.33 639.99 -214.66 640.98 -215 642 C-216.32 642 -217.64 642 -219 642 C-218.67 829.44 -218.34 1016.88 -218 1210 C-217.34 1210 -216.68 1210 -216 1210 C-216 1210.99 -216 1211.98 -216 1213 C-220.46145938 1212.4388553 -223.30598418 1210.75308058 -227.0234375 1208.2734375 C-227.59743286 1207.89395966 -228.17142822 1207.51448181 -228.76281738 1207.12350464 C-230.63846788 1205.8812434 -232.5065953 1204.62812656 -234.375 1203.375 C-235.68449271 1202.50533222 -236.9945579 1201.63652588 -238.30517578 1200.76855469 C-240.9542991 1199.01330134 -243.60106257 1197.25457728 -246.24609375 1195.49316406 C-251.43260106 1192.04328699 -256.65264871 1188.64528295 -261.875 1185.25 C-263.73319149 1184.03924445 -265.59126497 1182.82830778 -267.44921875 1181.6171875 C-268.81506104 1180.72725098 -268.81506104 1180.72725098 -270.20849609 1179.81933594 C-274.06250082 1177.30752527 -277.91511099 1174.79357914 -281.76782227 1172.27978516 C-286.51108488 1169.18530109 -291.25539996 1166.09243296 -296 1163 C-296.93134766 1162.39285156 -297.86269531 1161.78570313 -298.82226562 1161.16015625 C-301.52678385 1159.39757604 -304.23202169 1157.63610607 -306.9375 1155.875 C-307.73567139 1155.35470215 -308.53384277 1154.8344043 -309.35620117 1154.29833984 C-310.11392822 1153.80543457 -310.87165527 1153.3125293 -311.65234375 1152.8046875 C-312.30195068 1152.38171387 -312.95155762 1151.95874023 -313.62084961 1151.52294922 C-315.87468608 1150.0055823 -315.87468608 1150.0055823 -317.9477317 1149.0937586 C-323.54099514 1146.24098943 -323.54099514 1146.24098943 -324.74192101 1142.99410375 C-325.02214079 1140.44519535 -325.04384652 1137.99992139 -324.98438263 1135.4360075 C-324.99361338 1134.46280016 -325.00284414 1133.48959281 -325.01235461 1132.48689434 C-325.03363675 1129.20532011 -324.99756457 1125.92684731 -324.96203613 1122.64543152 C-324.96552286 1120.27759813 -324.97252404 1117.90976773 -324.98274946 1115.54195386 C-324.99693843 1110.38366506 -324.98618448 1105.22604148 -324.9536438 1100.06786156 C-324.90539186 1092.39792518 -324.90295447 1084.72845473 -324.90997971 1077.05839425 C-324.92049528 1064.15681717 -324.89374364 1051.25556766 -324.84584045 1038.35408592 C-324.79852364 1025.57781543 -324.76771688 1012.80168134 -324.75901794 1000.02532387 C-324.75819307 998.83427436 -324.75819307 998.83427436 -324.75735153 997.61916324 C-324.75464491 993.58676242 -324.75223382 989.55436149 -324.74993652 985.52196041 C-324.73312782 956.95147771 -324.67921403 928.38117328 -324.60351562 899.81079102 C-324.530055 872.05298817 -324.47337888 844.29523408 -324.43945312 816.53735352 C-324.43840092 815.68191711 -324.43734871 814.8264807 -324.43626461 813.94512198 C-324.42571656 805.35457228 -324.41551003 796.76402221 -324.40555374 788.17347181 C-324.38526337 770.67312512 -324.36269336 753.17278162 -324.33874512 735.67243958 C-324.3376468 734.86778087 -324.33654848 734.06312217 -324.33541688 733.23407987 C-324.26179656 679.48931172 -324.13486696 625.74464507 -324 572 C-323.48911976 571.7743187 -322.97823953 571.54863741 -322.45187807 571.31611729 C-317.07345308 568.94017221 -311.69509756 566.56406992 -306.31678009 564.18788147 C-304.31684831 563.3043176 -302.31689957 562.42079213 -300.31693268 561.53730774 C-287.19802662 555.74199966 -274.08271582 549.93897167 -260.9810791 544.10470581 C-240.71242548 535.08004415 -220.4241715 526.10001435 -200.12416077 517.14613342 C-195.66016568 515.17650583 -191.19846449 513.20187309 -186.74026489 511.21916199 C-184.90449 510.4028803 -183.06798408 509.58824324 -181.23144531 508.77368164 C-179.11101303 507.83306592 -176.99177255 506.88975651 -174.87402344 505.94311523 C-173.97586914 505.54552002 -173.07771484 505.1479248 -172.15234375 504.73828125 C-171.38913818 504.39837158 -170.62593262 504.05846191 -169.83959961 503.70825195 C-168 503 -168 503 -166 503 C-166 359.78 -166 216.56 -166 69 C-161.71 67.35 -157.42 65.7 -153 64 C-150.12207672 62.76211801 -147.26773207 61.512097 -144.421875 60.20703125 C-143.66403214 59.86356659 -142.90618927 59.52010193 -142.12538147 59.16622925 C-140.50582026 58.43206868 -138.88693956 57.69640523 -137.26870728 56.95932007 C-132.86934732 54.95619953 -128.4640809 52.96616353 -124.05859375 50.9765625 C-123.14853073 50.56542709 -122.23846771 50.15429169 -121.30082703 49.73069763 C-111.5025416 45.31183763 -101.66020343 40.99482365 -91.8125 36.6875 C-80.25046397 31.62770021 -68.69944974 26.54788104 -57.1875 21.375 C-56.07076904 20.87556885 -54.95403809 20.3761377 -53.8034668 19.86157227 C-47.83611537 17.18951592 -41.88337875 14.49024092 -35.94642639 11.75143433 C-32.65366112 10.23605732 -29.35461111 8.73468082 -26.05459595 7.23516846 C-24.45044301 6.50217415 -22.84910344 5.76298741 -21.25082397 5.01727295 C-19.0204943 3.97732166 -16.78128676 2.95930846 -14.5390625 1.9453125 C-13.87990341 1.63148621 -13.22074432 1.31765991 -12.54161072 0.99432373 C-7.96493913 -1.03942624 -4.84222825 -1.19000805 0 0 Z " fill="#F49880" transform="translate(328,130)"/>
<path d="M0 0 C2.96155081 1.55925137 5.64899668 3.43892149 8.375 5.375 C9.97838799 6.47899635 11.58257312 7.58183575 13.1875 8.68359375 C14.39599609 9.52059814 14.39599609 9.52059814 15.62890625 10.37451172 C19.16604025 12.7993715 22.76585283 15.1217624 26.375 17.4375 C27.78271808 18.34479458 29.19026747 19.25235094 30.59765625 20.16015625 C31.31195801 20.6205127 32.02625977 21.08086914 32.76220703 21.55517578 C36.78500927 24.1524858 40.79844023 26.76420727 44.8125 29.375 C45.64676514 29.91745361 46.48103027 30.45990723 47.34057617 31.01879883 C50.74772591 33.23428052 54.15461571 35.4501618 57.56152344 37.66601562 C60.10341379 39.31916709 62.64542373 40.97213444 65.1875 42.625 C66.4242749 43.42925415 66.4242749 43.42925415 67.68603516 44.24975586 C72.44936513 47.34606157 77.21715929 50.43531625 81.98974609 53.51733398 C84.73780918 55.29310414 87.48267903 57.07377654 90.22753906 58.85449219 C91.83221529 59.89156393 93.44310283 60.91900922 95.0546875 61.9453125 C96.29605469 62.74582031 96.29605469 62.74582031 97.5625 63.5625 C98.24441406 63.99691406 98.92632813 64.43132812 99.62890625 64.87890625 C100.08136719 65.24886719 100.53382813 65.61882812 101 66 C101 66.66 101 67.32 101 68 C100.20948242 68.29495361 99.41896484 68.58990723 98.60449219 68.89379883 C90.68332313 71.88908589 82.95418149 75.17605144 75.25 78.6875 C72.68354317 79.84913459 70.11539978 81.00700854 67.546875 82.1640625 C66.86786133 82.47011917 66.18884766 82.77617584 65.48925781 83.09150696 C56.8532838 86.97668277 48.17495235 90.76539808 39.5 94.5625 C25.54554442 100.67268437 11.61256056 106.8290299 -2.30282593 113.02767944 C-15.76134061 119.02203995 -29.22016683 125.01573278 -42.72866821 130.89682007 C-44.02149462 131.4599177 -45.31380395 132.02420416 -46.6055603 132.5897522 C-48.34348298 133.3500304 -50.08377846 134.10487796 -51.82421875 134.859375 C-52.78416748 135.27670898 -53.74411621 135.69404297 -54.7331543 136.12402344 C-57 137 -57 137 -59 137 C-59 281.21 -59 425.42 -59 574 C-63.95 576.31 -68.9 578.62 -74 581 C-78.6882354 583.20609899 -78.6882354 583.20609899 -83.37617493 585.41282654 C-99.72672508 593.11114784 -116.14565707 600.64724906 -132.60899353 608.10083008 C-140.09729157 611.49313034 -147.57183272 614.91539698 -155.04647827 618.33764648 C-165.35550914 623.05697873 -175.66538725 627.77438014 -186 632.4375 C-187.191698 632.97673096 -187.191698 632.97673096 -188.4074707 633.52685547 C-191.24886742 634.80479191 -194.04205512 636.01401837 -197 637 C-197 597.73 -197 558.46 -197 518 C-169 504 -169 504 -165 504 C-165 360.45 -165 216.9 -165 69 C-120.4024231 48.82490569 -120.4024231 48.82490569 -100.69921875 40.3515625 C-91.64745038 36.4457939 -82.67089875 32.37235406 -73.6875 28.3125 C-59.26382067 21.79511822 -44.80678072 15.35890314 -30.3125 9 C-29.42138519 8.60873932 -28.53027039 8.21747864 -27.6121521 7.81436157 C-25.09221427 6.70838512 -22.57166452 5.60381956 -20.05078125 4.5 C-19.30680084 4.17376144 -18.56282043 3.84752289 -17.79629517 3.51139832 C-15.86677205 2.66814862 -13.93401377 1.83288389 -12 1 C-11.07678955 0.59700684 -10.1535791 0.19401367 -9.20239258 -0.22119141 C-5.75922056 -1.4387636 -3.51801886 -0.91098173 0 0 Z " fill="#F49880" transform="translate(625,6)"/>
<path d="M0 0 C1.42361843 0.94876016 2.84719404 1.89758458 4.27075195 2.84643555 C5.06351028 3.37480515 5.85626862 3.90317474 6.67304993 4.44755554 C8.6728957 5.7817696 10.67111411 7.11834679 12.66796875 8.45703125 C19.13703697 12.78938509 25.63088105 17.07452589 32.19091797 21.26855469 C37.75520611 24.83030638 43.28316069 28.44680504 48.8125 32.0625 C58.18601338 38.18763558 67.59349491 44.25769432 77.04370117 50.26391602 C81.77173557 53.2721908 86.47649586 56.2998373 91.109375 59.453125 C91.88039551 59.97229492 92.65141602 60.49146484 93.44580078 61.02636719 C94.84400835 61.97187255 96.23389931 62.92986406 97.61279297 63.90332031 C101.89254931 66.7804109 104.87572538 67.47422593 110 67 C109.67 67.66 109.34 68.32 109 69 C107.68 69 106.36 69 105 69 C105.33 256.44 105.66 443.88 106 637 C106.66 637 107.32 637 108 637 C108 637.99 108 638.98 108 640 C103.53854062 639.4388553 100.69401582 637.75308058 96.9765625 635.2734375 C96.11556946 634.70422073 96.11556946 634.70422073 95.23718262 634.12350464 C93.36153212 632.8812434 91.4934047 631.62812656 89.625 630.375 C88.31550729 629.50533222 87.0054421 628.63652588 85.69482422 627.76855469 C83.0457009 626.01330134 80.39893743 624.25457728 77.75390625 622.49316406 C72.56739894 619.04328699 67.34735129 615.64528295 62.125 612.25 C60.26680851 611.03924445 58.40873503 609.82830778 56.55078125 608.6171875 C55.18493896 607.72725098 55.18493896 607.72725098 53.79150391 606.81933594 C49.93749918 604.30752527 46.08488901 601.79357914 42.23217773 599.27978516 C37.48891512 596.18530109 32.74460004 593.09243296 28 590 C27.06865234 589.39285156 26.13730469 588.78570313 25.17773438 588.16015625 C22.47321615 586.39757604 19.76797831 584.63610607 17.0625 582.875 C16.26432861 582.35470215 15.46615723 581.8344043 14.64379883 581.29833984 C13.88607178 580.80543457 13.12834473 580.3125293 12.34765625 579.8046875 C11.69804932 579.38171387 11.04844238 578.95874023 10.37915039 578.52294922 C8.12523536 577.00566038 8.12523536 577.00566038 6.0522683 576.09320955 C0.45900477 573.23932391 0.45900477 573.23932391 -0.74192101 569.99679544 C-1.02212775 567.45214783 -1.04385352 565.01130045 -0.98438263 562.45162487 C-0.99361338 561.4801059 -1.00284414 560.50858693 -1.01235461 559.50762799 C-1.03363651 556.23179523 -0.99756483 552.95906943 -0.96203613 549.68339539 C-0.96552286 547.31968679 -0.97252405 544.95598118 -0.98274946 542.59229213 C-0.99693836 537.44301526 -0.98618464 532.29440478 -0.9536438 527.14523697 C-0.90539162 519.48870165 -0.90295449 511.83263307 -0.90997971 504.17597343 C-0.92049525 491.29693501 -0.89374375 478.41822475 -0.84584045 465.53928185 C-0.79852356 452.78534002 -0.76771686 440.03153483 -0.75901794 427.27750587 C-0.75846803 426.48485921 -0.75791811 425.69221255 -0.75735153 424.8755463 C-0.75464491 420.85018553 -0.75223382 416.82482463 -0.74993652 412.79946361 C-0.73312784 384.27889504 -0.67921411 355.75850506 -0.60351562 327.23803711 C-0.53005494 299.52873688 -0.47337886 271.8194855 -0.43945312 244.11010742 C-0.43840092 243.25616507 -0.43734871 242.40222272 -0.43626461 241.52240333 C-0.42571656 232.94685703 -0.41551003 224.37131036 -0.40555374 215.79576336 C-0.38526338 198.32598257 -0.36269336 180.85620497 -0.33874512 163.38642883 C-0.3376468 162.58317562 -0.33654848 161.7799224 -0.33541688 160.95232818 C-0.26179662 107.30147713 -0.13486703 53.65072776 0 0 Z " fill="#F49880" transform="translate(4,703)"/>
<path d="M0 0 C0 177.54 0 355.08 0 538 C-3.98238034 536.40704786 -6.85429642 534.93658107 -10.3671875 532.61328125 C-11.92505981 531.58823486 -11.92505981 531.58823486 -13.5144043 530.54248047 C-14.63462433 529.79918599 -15.75482234 529.05585832 -16.875 528.3125 C-18.04240468 527.54264615 -19.21013409 526.77328451 -20.37817383 526.00439453 C-22.76678628 524.43160211 -25.15410535 522.85687554 -27.54052734 521.28076172 C-32.57580637 517.95783016 -37.6317265 514.66663125 -42.6875 511.375 C-44.57298782 510.14594248 -46.45840452 508.91677586 -48.34375 507.6875 C-49.27316406 507.08164063 -50.20257813 506.47578125 -51.16015625 505.8515625 C-54.05505499 503.96410445 -56.9494723 502.07591022 -59.84375 500.1875 C-65.56157323 496.4569109 -71.28042449 492.72790197 -77 489 C-77.93134766 488.39285156 -78.86269531 487.78570313 -79.82226562 487.16015625 C-82.52678385 485.39757604 -85.23202169 483.63610607 -87.9375 481.875 C-88.73567139 481.35470215 -89.53384277 480.8344043 -90.35620117 480.29833984 C-91.11392822 479.80543457 -91.87165527 479.3125293 -92.65234375 478.8046875 C-93.30195068 478.38171387 -93.95155762 477.95874023 -94.62084961 477.52294922 C-96.84249233 475.96585273 -96.84249233 475.96585273 -98.94780761 475.3425175 C-101.63146203 474.21648128 -103.10409509 473.23259633 -105 471 C-106.26303083 465.4943332 -106.05783382 459.9744155 -105.98222351 454.36019897 C-105.98785922 452.61321691 -105.99700035 450.86624321 -106.00935107 449.11929572 C-106.03310255 444.31302692 -106.0068286 439.5081217 -105.97250211 434.70196438 C-105.94416918 429.52127242 -105.96189646 424.34071519 -105.97395325 419.1599884 C-105.99027728 409.00935686 -105.96396577 398.85925766 -105.92352702 388.70871089 C-105.87811942 376.89645307 -105.8752954 365.08430217 -105.87446842 353.27197118 C-105.87159158 332.20203283 -105.83077424 311.13233875 -105.76831055 290.0625 C-105.70768982 269.60055968 -105.67228904 249.13878831 -105.66577148 228.67675781 C-105.66536591 227.41626851 -105.66496033 226.15577921 -105.66454246 224.85709326 C-105.66414416 223.59881813 -105.66374587 222.34054299 -105.6633355 221.04413831 C-105.66252966 218.51088802 -105.66171503 215.97763773 -105.66089153 213.44438744 C-105.66049003 212.19518513 -105.66008853 210.94598283 -105.65967486 209.65892591 C-105.65240949 190.18112906 -105.62260117 170.70335892 -105.59026789 151.22558992 C-105.57879777 144.15729568 -105.57058315 137.0890062 -105.56468441 130.02070521 C-105.55521564 118.81145109 -105.53607588 107.60230857 -105.49660971 96.39311646 C-105.47874217 91.26876167 -105.46559978 86.14451303 -105.46528244 81.02012444 C-105.46480534 76.33478662 -105.45055747 71.64970597 -105.42499492 66.96443971 C-105.4181379 65.2640217 -105.41638379 63.5635744 -105.42007979 61.86314659 C-105.42430723 59.56223278 -105.41031147 57.26214805 -105.39148998 54.96132469 C-105.38829256 53.68020062 -105.38509514 52.39907655 -105.38180083 51.07913053 C-105 48 -105 48 -103.59662563 46.13913596 C-100.13745597 43.67114066 -98.38013779 43 -94 43 C-94 42.34 -94 41.68 -94 41 C-91.42047597 39.82421696 -88.83696062 38.659209 -86.25 37.5 C-85.52039063 37.16613281 -84.79078125 36.83226562 -84.0390625 36.48828125 C-83.33007812 36.17246094 -82.62109375 35.85664062 -81.890625 35.53125 C-81.24125977 35.23798828 -80.59189453 34.94472656 -79.92285156 34.64257812 C-78 34 -78 34 -74 34 C-74 33.34 -74 32.68 -74 32 C-72.68 32 -71.36 32 -70 32 C-70 31.34 -70 30.68 -70 30 C-63.5 27 -63.5 27 -59 27 C-59 26.34 -59 25.68 -59 25 C-56.42047597 23.82421696 -53.83696062 22.659209 -51.25 21.5 C-50.15558594 20.99919922 -50.15558594 20.99919922 -49.0390625 20.48828125 C-48.33007812 20.17246094 -47.62109375 19.85664062 -46.890625 19.53125 C-46.24125977 19.23798828 -45.59189453 18.94472656 -44.92285156 18.64257812 C-43 18 -43 18 -39 18 C-39 17.34 -39 16.68 -39 16 C-37.68 16 -36.36 16 -35 16 C-35 15.34 -35 14.68 -35 14 C-28.5 11 -28.5 11 -24 11 C-24 10.34 -24 9.68 -24 9 C-20.75557521 7.48772266 -17.50362598 5.99236563 -14.25 4.5 C-13.32960938 4.07074219 -12.40921875 3.64148438 -11.4609375 3.19921875 C-10.12675781 2.59013672 -10.12675781 2.59013672 -8.765625 1.96875 C-7.54020996 1.40317383 -7.54020996 1.40317383 -6.29003906 0.82617188 C-4 0 -4 0 0 0 Z " fill="#F49880" transform="translate(413,680)"/>
<path d="M0 0 C0 176.88 0 353.76 0 536 C-4.20730597 534.31707761 -7.2906028 532.64693051 -11.0234375 530.17578125 C-11.59756882 529.79762772 -12.17170013 529.41947418 -12.76322937 529.02986145 C-14.63653214 527.79479499 -16.50570578 526.55362314 -18.375 525.3125 C-19.68253412 524.44921123 -20.99039916 523.5864235 -22.29858398 522.72412109 C-24.94446987 520.97970177 -27.5891217 519.23343612 -30.23291016 517.48583984 C-35.49504493 514.01015922 -40.77770842 510.56610024 -46.0625 507.125 C-46.99433105 506.51760986 -47.92616211 505.91021973 -48.88623047 505.28442383 C-54.92096947 501.35138015 -60.9598593 497.4247412 -67 493.5 C-69.44537058 491.91057109 -71.89068281 490.3210525 -74.3359375 488.73144531 C-76.23674541 487.49605953 -78.13781593 486.26107777 -80.0390625 485.02636719 C-83.19359756 482.97727577 -86.3468984 480.92629634 -89.5 478.875 C-90.48613281 478.23498047 -91.47226562 477.59496094 -92.48828125 476.93554688 C-93.40996094 476.33548828 -94.33164062 475.73542969 -95.28125 475.1171875 C-96.09658203 474.58722168 -96.91191406 474.05725586 -97.75195312 473.51123047 C-98.49380859 473.01252441 -99.23566406 472.51381836 -100 472 C-101.04363044 471.42611229 -101.04363044 471.42611229 -102.10834432 470.84063089 C-104 469 -104 469 -104.50599933 465.92086947 C-104.50881703 464.6397454 -104.51163473 463.35862132 -104.51453781 462.03867531 C-104.52154996 461.32252969 -104.52856211 460.60638407 -104.53578675 459.86853707 C-104.55451024 457.45010948 -104.54454523 455.03263514 -104.53485107 452.61416626 C-104.54231891 450.87034197 -104.55151988 449.12652437 -104.56231236 447.38271749 C-104.58686773 442.57620659 -104.58624038 437.76997309 -104.58153486 432.96341372 C-104.58072092 427.78536429 -104.60277378 422.60740525 -104.62176514 417.42939758 C-104.65503893 407.27934901 -104.66598663 397.12939333 -104.66821465 386.97929479 C-104.67011301 378.7318737 -104.67832054 370.48448336 -104.69101715 362.23707199 C-104.72625626 338.87233463 -104.74469261 315.50767087 -104.74169526 292.14290674 C-104.74153543 290.88241744 -104.74137561 289.62192814 -104.74121094 288.32324219 C-104.74104741 287.0612202 -104.74088389 285.7991982 -104.74071541 284.49893312 C-104.73908909 264.03905222 -104.77737572 243.57946562 -104.8337644 223.11966987 C-104.89115987 202.12954936 -104.91884846 181.13957252 -104.9153893 160.1493715 C-104.91405935 148.35773129 -104.92513709 136.56639958 -104.9681015 124.77482986 C-105.00444361 114.73613138 -105.01328767 104.69788124 -104.98606381 94.65914561 C-104.97296255 89.53426707 -104.97291724 84.41024961 -105.00747681 79.28545189 C-105.03876919 74.5970421 -105.03339075 69.91018205 -104.99834028 65.22181205 C-104.9921624 63.52262481 -104.99960775 61.82332432 -105.02178058 60.12427051 C-105.17661257 47.42215184 -105.17661257 47.42215184 -102.29438162 43.93844771 C-100.20979934 42.59398837 -98.34802198 41.77711814 -96 41 C-94.65432061 40.36628839 -93.31311257 39.72289982 -91.97875977 39.06567383 C-90.55243688 38.43971858 -89.12316366 37.82045416 -87.69140625 37.20703125 C-86.90347687 36.86320404 -86.11554749 36.51937683 -85.30374146 36.16513062 C-82.72583425 35.04172046 -80.14421883 33.92711903 -77.5625 32.8125 C-75.75142499 32.02514836 -73.94063865 31.23713244 -72.13012695 30.44848633 C-68.34921169 28.80205597 -64.56705466 27.15852371 -60.78417969 25.51660156 C-55.0494424 23.02476345 -49.32424103 20.5115763 -43.6015625 17.9921875 C-42.68058273 17.58685287 -41.75960297 17.18151825 -40.81071472 16.76390076 C-37.23665591 15.19068286 -33.66275134 13.61711549 -30.08914185 12.0428772 C-2.7391469 0 -2.7391469 0 0 0 Z " fill="#F49880" transform="translate(713,558)"/>
<path d="M0 0 C2.28868344 1.27760683 4.27157144 2.53545255 6.375 4.0625 C7.69726178 4.98198729 9.02164173 5.89843295 10.34765625 6.8125 C11.44811279 7.57433594 11.44811279 7.57433594 12.57080078 8.3515625 C17.24985698 11.52673712 22.0398658 14.53068246 26.8125 17.5625 C36.85882672 23.96686149 46.8478089 30.45191885 56.81176758 36.98339844 C62.17843327 40.50121585 67.54946627 44.01111791 72.94335938 47.48706055 C75.5998371 49.19907593 78.25177976 50.91800615 80.90234375 52.63916016 C82.41412364 53.6199168 83.92731951 54.59849201 85.44140625 55.57568359 C87.96647473 57.20878609 90.483884 58.85314643 93 60.5 C93.78503906 61.0050708 94.57007813 61.5101416 95.37890625 62.03051758 C96.09949219 62.50513428 96.82007813 62.97975098 97.5625 63.46875 C98.20316406 63.88576172 98.84382813 64.30277344 99.50390625 64.73242188 C101 66 101 66 102 69 C100.72253906 69.32871094 99.44507813 69.65742188 98.12890625 69.99609375 C90.62391302 72.25508226 83.60754207 75.62758209 76.49804688 78.88842773 C72.0452594 80.93013778 67.58265925 82.95021854 63.12109375 84.97265625 C62.19948456 85.39100739 61.27787537 85.80935852 60.32833862 86.24038696 C50.75600515 90.5787463 41.13097774 94.7938798 31.5 99 C18.56729973 104.65439324 5.66268976 110.36646783 -7.20568848 116.16586304 C-9.71835606 117.29823913 -12.23169738 118.42910916 -14.74511719 119.55981445 C-21.73447954 122.70674779 -28.71893393 125.86287448 -35.67987061 129.07228088 C-38.40187588 130.32618651 -41.12751541 131.57206145 -43.8536377 132.81698608 C-45.69782455 133.66354917 -47.53585443 134.52254892 -49.37402344 135.38208008 C-50.46231445 135.87861084 -51.55060547 136.3751416 -52.671875 136.88671875 C-54.08098145 137.53966919 -54.08098145 137.53966919 -55.51855469 138.20581055 C-58.26186173 139.08380915 -59.36023312 139.05068982 -62 138 C-64.2607531 136.7183132 -66.43926226 135.39977903 -68.625 134 C-69.30377197 133.57066162 -69.98254395 133.14132324 -70.68188477 132.69897461 C-79.75534309 126.93035928 -88.73252923 121.01057769 -97.72265625 115.11328125 C-102.76226538 111.80803902 -107.81183797 108.51902692 -112.875 105.25 C-119.76946182 100.79790655 -126.65286335 96.32905566 -133.53149414 91.85253906 C-137.61595847 89.19547332 -141.70366994 86.54378121 -145.80078125 83.90625 C-146.56197266 83.41576172 -147.32316406 82.92527344 -148.10742188 82.41992188 C-149.52314173 81.50829359 -150.93973454 80.59801874 -152.35742188 79.68945312 C-156.66573059 76.91394972 -160.84951748 74.00681786 -165 71 C-162.49878209 68.10248108 -159.84020212 66.82768915 -156.3671875 65.27734375 C-154.60193726 64.48408691 -154.60193726 64.48408691 -152.80102539 63.67480469 C-151.49243511 63.09551141 -150.18375693 62.51641668 -148.875 61.9375 C-147.49515476 61.32110023 -146.1155215 60.70422575 -144.73608398 60.08691406 C-131.80331506 54.31163653 -118.82209975 48.64469829 -105.84594727 42.96777344 C-92.78958027 37.25107129 -79.78653747 31.42174662 -66.79870605 25.55126953 C-54.5051287 19.99696056 -42.17236599 14.54656165 -29.77270508 9.2331543 C-28.66822021 8.75918213 -27.56373535 8.28520996 -26.42578125 7.796875 C-24.83564209 7.11915039 -24.83564209 7.11915039 -23.21337891 6.42773438 C-20.96314152 5.42793281 -18.73740108 4.37198995 -16.53271484 3.27539062 C-15.40172363 2.71529297 -14.27073242 2.15519531 -13.10546875 1.578125 C-12.1002417 1.0615332 -11.09501465 0.54494141 -10.05932617 0.01269531 C-6.27859962 -1.23879729 -3.85011127 -0.89390256 0 0 Z " fill="#FECCA8" transform="translate(328,130)"/>
<path d="M0 0 C2.96155081 1.55925137 5.64899668 3.43892149 8.375 5.375 C9.97838799 6.47899635 11.58257312 7.58183575 13.1875 8.68359375 C14.39599609 9.52059814 14.39599609 9.52059814 15.62890625 10.37451172 C19.16604025 12.7993715 22.76585283 15.1217624 26.375 17.4375 C27.78271808 18.34479458 29.19026747 19.25235094 30.59765625 20.16015625 C31.31195801 20.6205127 32.02625977 21.08086914 32.76220703 21.55517578 C36.78500927 24.1524858 40.79844023 26.76420727 44.8125 29.375 C45.64676514 29.91745361 46.48103027 30.45990723 47.34057617 31.01879883 C50.74772591 33.23428052 54.15461571 35.4501618 57.56152344 37.66601562 C60.10341379 39.31916709 62.64542373 40.97213444 65.1875 42.625 C66.4242749 43.42925415 66.4242749 43.42925415 67.68603516 44.24975586 C72.44936513 47.34606157 77.21715929 50.43531625 81.98974609 53.51733398 C84.73780918 55.29310414 87.48267903 57.07377654 90.22753906 58.85449219 C91.83221529 59.89156393 93.44310283 60.91900922 95.0546875 61.9453125 C96.29605469 62.74582031 96.29605469 62.74582031 97.5625 63.5625 C98.24441406 63.99691406 98.92632813 64.43132812 99.62890625 64.87890625 C100.08136719 65.24886719 100.53382813 65.61882812 101 66 C101 66.66 101 67.32 101 68 C100.20948242 68.29495361 99.41896484 68.58990723 98.60449219 68.89379883 C90.68332313 71.88908589 82.95418149 75.17605144 75.25 78.6875 C72.68354317 79.84913459 70.11539978 81.00700854 67.546875 82.1640625 C66.86786133 82.47011917 66.18884766 82.77617584 65.48925781 83.09150696 C56.85328239 86.9766834 48.17491095 90.76530065 39.5 94.5625 C25.58495366 100.65610059 11.68964601 106.79221329 -2.18774414 112.97109985 C-5.038973 114.23953348 -7.89134929 115.5053485 -10.74414062 116.77026367 C-18.65111181 120.2774248 -26.55563568 123.78746333 -34.42637634 127.37536621 C-37.42020445 128.73788415 -40.41970782 130.08756893 -43.42037964 131.43493652 C-44.79122477 132.05460801 -46.15926249 132.68053346 -47.52420044 133.31311035 C-49.37351237 134.1697801 -51.23338869 135.00353526 -53.09375 135.8359375 C-54.12177734 136.30563965 -55.14980469 136.7753418 -56.20898438 137.25927734 C-59.7059747 138.18736243 -60.86083884 137.72544833 -64 136 C-65.97241228 134.78450977 -67.91425197 133.5187305 -69.83203125 132.21875 C-70.38068344 131.84925735 -70.92933563 131.47976471 -71.49461365 131.09907532 C-72.66431943 130.31100536 -73.83270976 129.52097992 -74.99987793 128.72915649 C-78.05654039 126.65640423 -81.12384771 124.59954776 -84.19140625 122.54296875 C-84.7918576 122.14011154 -85.39230896 121.73725433 -86.01095581 121.32218933 C-90.37418793 118.40152246 -94.77746747 115.56218088 -99.25 112.8125 C-108.65483444 107.02345589 -117.86706879 100.94060016 -127.10595703 94.89160156 C-132.45347079 91.3963648 -137.81588502 87.92405011 -143.17651367 84.44897461 C-148.75646896 80.8255605 -154.29076918 77.14288934 -159.78515625 73.390625 C-162.03285602 71.85758086 -162.03285602 71.85758086 -165 71 C-165 70.34 -165 69.68 -165 69 C-124.6856265 50.65436796 -124.6856265 50.65436796 -107.875 43.4375 C-96.42163501 38.51979564 -85.04578197 33.44563151 -73.6875 28.3125 C-59.26382067 21.79511822 -44.80678072 15.35890314 -30.3125 9 C-29.42138519 8.60873932 -28.53027039 8.21747864 -27.6121521 7.81436157 C-25.09221427 6.70838512 -22.57166452 5.60381956 -20.05078125 4.5 C-19.30680084 4.17376144 -18.56282043 3.84752289 -17.79629517 3.51139832 C-15.86677205 2.66814862 -13.93401377 1.83288389 -12 1 C-11.07678955 0.59700684 -10.1535791 0.19401367 -9.20239258 -0.22119141 C-5.75922056 -1.4387636 -3.51801886 -0.91098173 0 0 Z " fill="#FECCA8" transform="translate(625,6)"/>
<path d="M0 0 C0.62503418 0.44923828 1.25006836 0.89847656 1.89404297 1.36132812 C2.93238281 2.09416016 2.93238281 2.09416016 3.99169922 2.84179688 C5.05324219 3.60943359 5.05324219 3.60943359 6.13623047 4.39257812 C7.55322905 5.40617891 8.97241484 6.41673081 10.39404297 7.42382812 C11.01682129 7.87306641 11.63959961 8.32230469 12.28125 8.78515625 C14.13034172 10.06846788 14.13034172 10.06846788 17.01123047 10.89257812 C17.01123047 11.55257812 17.01123047 12.21257813 17.01123047 12.89257812 C17.68412109 13.12203125 18.35701172 13.35148438 19.05029297 13.58789062 C22.81079141 15.24489126 26.01034435 17.44241961 29.38623047 19.76757812 C33.02464943 22.25974721 36.63668428 24.72648845 40.48779297 26.88085938 C44.47346105 29.1123863 48.22940086 31.6472734 52.01123047 34.20507812 C59.20230818 39.03545998 66.43616908 43.79538936 73.69873047 48.51757812 C82.51018896 54.24952365 91.28408386 60.0331195 100.01123047 65.89257812 C99.68123047 66.55257812 99.35123047 67.21257812 99.01123047 67.89257812 C96.44873047 68.51757812 96.44873047 68.51757812 94.01123047 68.89257812 C94.01123047 69.55257812 94.01123047 70.21257812 94.01123047 70.89257812 C89.55623047 71.88257813 89.55623047 71.88257813 85.01123047 72.89257812 C85.01123047 73.55257812 85.01123047 74.21257812 85.01123047 74.89257812 C80.55623047 75.88257813 80.55623047 75.88257813 76.01123047 76.89257812 C76.01123047 77.55257812 76.01123047 78.21257812 76.01123047 78.89257812 C75.37958984 79.10881836 74.74794922 79.32505859 74.09716797 79.54785156 C65.56436135 82.55093228 57.39016628 86.22446437 49.16894531 89.98535156 C47.3893433 90.79766524 45.60658121 91.60304472 43.82373047 92.40820312 C42.25558594 93.12411621 42.25558594 93.12411621 40.65576172 93.85449219 C38.01123047 94.89257812 38.01123047 94.89257812 35.01123047 94.89257812 C35.01123047 95.55257812 35.01123047 96.21257812 35.01123047 96.89257812 C30.55623047 97.88257813 30.55623047 97.88257813 26.01123047 98.89257812 C26.01123047 99.55257812 26.01123047 100.21257812 26.01123047 100.89257812 C21.55623047 101.88257813 21.55623047 101.88257813 17.01123047 102.89257812 C17.01123047 103.55257812 17.01123047 104.21257812 17.01123047 104.89257812 C12.55623047 105.88257813 12.55623047 105.88257813 8.01123047 106.89257812 C8.01123047 107.55257812 8.01123047 108.21257812 8.01123047 108.89257812 C3.55623047 109.88257813 3.55623047 109.88257813 -0.98876953 110.89257812 C-0.98876953 111.55257812 -0.98876953 112.21257812 -0.98876953 112.89257812 C-5.44376953 113.88257813 -5.44376953 113.88257813 -9.98876953 114.89257812 C-9.98876953 115.55257812 -9.98876953 116.21257812 -9.98876953 116.89257812 C-14.44376953 117.88257813 -14.44376953 117.88257813 -18.98876953 118.89257812 C-18.98876953 119.55257812 -18.98876953 120.21257812 -18.98876953 120.89257812 C-23.44376953 121.88257813 -23.44376953 121.88257813 -27.98876953 122.89257812 C-27.98876953 123.55257812 -27.98876953 124.21257812 -27.98876953 124.89257812 C-31.45376953 125.38757813 -31.45376953 125.38757813 -34.98876953 125.89257812 C-34.98876953 126.55257812 -34.98876953 127.21257812 -34.98876953 127.89257812 C-39.44376953 128.88257813 -39.44376953 128.88257813 -43.98876953 129.89257812 C-43.98876953 130.55257812 -43.98876953 131.21257812 -43.98876953 131.89257812 C-45.66797661 132.60009214 -47.35770122 133.2826654 -49.05126953 133.95507812 C-49.99099609 134.33792969 -50.93072266 134.72078125 -51.89892578 135.11523438 C-56.99676162 136.39774933 -60.0468532 135.96214279 -64.57788086 133.46655273 C-67.72186813 131.48698561 -70.79543674 129.42498519 -73.86376953 127.33007812 C-75.59279611 126.17019282 -77.32479073 125.01482571 -79.05679321 123.85939026 C-80.24658209 123.06502875 -81.43535564 122.26914453 -82.62313843 121.4717865 C-88.80673906 117.32414182 -95.07934652 113.3230361 -101.36376953 109.33007812 C-108.37006528 104.87686605 -115.32215273 100.35712221 -122.22070312 95.73852539 C-125.82681274 93.33371018 -129.46661583 90.9844202 -133.11376953 88.64257812 C-136.0741489 86.72906248 -139.03157519 84.81101117 -141.98876953 82.89257812 C-142.80410156 82.36486816 -143.61943359 81.8371582 -144.45947266 81.29345703 C-146.93269559 79.68836033 -149.39894739 78.07303822 -151.86376953 76.45507812 C-152.63092285 75.95911133 -153.39807617 75.46314453 -154.18847656 74.95214844 C-154.90374512 74.4800293 -155.61901367 74.00791016 -156.35595703 73.52148438 C-157.30124268 72.90382202 -157.30124268 72.90382202 -158.265625 72.27368164 C-160.23549746 70.69482524 -161.55503304 68.96013944 -162.98876953 66.89257812 C-161.92182861 66.42174805 -160.8548877 65.95091797 -159.75561523 65.46582031 C-138.98856073 56.30040791 -118.22893391 47.11869466 -97.48876953 37.89257812 C-80.61354269 30.38628627 -63.7340713 22.88958408 -46.83007812 15.44824219 C-39.17546762 12.07747213 -31.52790162 8.69630161 -23.91845703 5.22460938 C-22.74637695 4.69424072 -21.57429687 4.16387207 -20.36669922 3.61743164 C-18.28153239 2.6720329 -16.20096293 1.71638786 -14.12646484 0.74780273 C-13.23797852 0.34698486 -12.34949219 -0.05383301 -11.43408203 -0.46679688 C-10.68658691 -0.81194336 -9.9390918 -1.15708984 -9.16894531 -1.51269531 C-5.67529232 -2.46572316 -3.11984928 -1.73724973 0 0 Z " fill="#FECCA8" transform="translate(166.98876953125,635.107421875)"/>
<path d="M0 0 C2.36157227 1.28417969 2.36157227 1.28417969 4.81640625 2.921875 C5.73534668 3.52870117 6.65428711 4.13552734 7.60107422 4.76074219 C9.06697998 5.7454248 9.06697998 5.7454248 10.5625 6.75 C12.63916229 8.12524258 14.71598815 9.50023819 16.79296875 10.875 C17.83501465 11.56851562 18.87706055 12.26203125 19.95068359 12.9765625 C24.40517652 15.93243419 28.88880454 18.84256711 33.375 21.75 C35.0182757 22.81763672 36.66150562 23.8853439 38.3046875 24.953125 C43.38860689 28.25361462 48.47772095 31.54604485 53.56787109 34.83691406 C59.89705045 38.93008921 66.21621909 43.03859238 72.53442383 47.14868164 C78.07921638 50.75465278 83.63148992 54.34884368 89.1875 57.9375 C94.82309061 61.57854821 100.43918355 65.24526069 106 69 C103.28368352 72.31413288 99.66080086 73.74079497 95.84375 75.44921875 C95.12234833 75.77860443 94.40094666 76.10799011 93.65768433 76.44735718 C91.27459723 77.53369888 88.8873395 78.61053963 86.5 79.6875 C84.82343194 80.44978322 83.14716654 81.21273241 81.47119141 81.97631836 C78.01125806 83.55165045 74.54975037 85.12344248 71.08691406 86.69238281 C66.38410118 88.82404307 61.68683577 90.96761401 56.9921875 93.1171875 C56.27581116 93.44517838 55.55943481 93.77316925 54.8213501 94.11109924 C53.38772235 94.76752796 51.95410817 95.42398631 50.52050781 96.08047485 C46.90781973 97.73404634 43.29373914 99.38456763 39.6796875 101.03515625 C33.14070016 104.02188017 26.60217013 107.00960173 20.06442261 109.9990387 C16.44173139 111.65550423 12.81870005 113.31121538 9.19482422 114.96508789 C2.32887032 118.09958313 -4.53290801 121.24252044 -11.38342285 124.41064453 C-14.63670749 125.91463717 -17.89188154 127.4145145 -21.1472168 128.9140625 C-22.70562542 129.6333529 -24.2630951 130.3546814 -25.81958008 131.078125 C-27.97115866 132.07801326 -30.12580713 133.07097576 -32.28125 134.0625 C-32.9201416 134.36164307 -33.5590332 134.66078613 -34.21728516 134.96899414 C-37.01562432 136.24872708 -38.88064845 137 -42 137 C-42.18692364 121.44051357 -42.32797465 105.88123087 -42.41449738 90.32088947 C-42.45574057 83.09578725 -42.5119617 75.87138282 -42.60351562 68.64672852 C-42.68328152 62.34927999 -42.73487164 56.05233676 -42.75270796 49.75439709 C-42.7631345 46.41959783 -42.79181006 43.0865804 -42.84584045 39.75216103 C-42.90378987 36.02831391 -42.91191798 32.30747625 -42.90820312 28.58325195 C-42.93696533 27.47913971 -42.96572754 26.37502747 -42.99536133 25.23745728 C-42.91640107 17.938514 -42.91640107 17.938514 -40.28067303 15.23918533 C-38.22948766 13.93052575 -36.24225249 12.93659868 -34 12 C-32.27197144 11.12045654 -32.27197144 11.12045654 -30.5090332 10.22314453 C-27.43717378 8.81050124 -24.36500677 7.39960097 -21.28100586 6.01367188 C-19.29984718 5.11928795 -17.32889138 4.20457083 -15.35742188 3.2890625 C-14.08911323 2.71488163 -12.8202516 2.14192035 -11.55078125 1.5703125 C-10.41294189 1.05227051 -9.27510254 0.53422852 -8.1027832 0.00048828 C-4.72409373 -1.08896561 -3.30939615 -1.16686957 0 0 Z " fill="#FECCA8" transform="translate(767,382)"/>
<path d="M0 0 C2.51056321 1.42331143 4.73801107 2.82686519 7.0625 4.5 C8.38591293 5.41782966 9.71015052 6.33447126 11.03515625 7.25 C11.69789551 7.71277344 12.36063477 8.17554688 13.04345703 8.65234375 C15.98192065 10.67634165 18.98729332 12.58906358 22 14.5 C26.93577411 17.65010704 31.82308506 20.86584814 36.6875 24.125 C42.73546753 28.17521911 48.84687749 32.1110883 55 36 C63.57335615 41.4538429 72.06069131 47.02345989 80.50439453 52.67602539 C85.60546561 56.08573507 90.73992929 59.42793674 95.93359375 62.6953125 C97.63851178 63.77176358 99.32233148 64.88155432 101 66 C100.92797852 67.78979492 100.92797852 67.78979492 100 70 C97.70572372 71.32814366 95.58513048 72.35647434 93.15234375 73.36328125 C92.44206024 73.67179016 91.73177673 73.98029907 90.99996948 74.29815674 C89.45973857 74.96551874 87.91660791 75.62621861 86.3710022 76.28103638 C82.2265847 78.03768812 78.1033939 79.84314702 73.9765625 81.640625 C73.13400406 82.00591812 72.29144562 82.37121124 71.4233551 82.74757385 C63.47954872 86.20007046 55.63871582 89.85282996 47.8125 93.5625 C45.18307703 94.80505397 42.5527486 96.04567686 39.921875 97.28515625 C39.27179474 97.59145462 38.62171448 97.89775299 37.95193481 98.21333313 C27.1370476 103.29782696 16.23727556 108.19895315 5.34916687 113.1240387 C0.12569361 115.48753299 -5.09228264 117.86293295 -10.30859375 120.2421875 C-12.59202342 121.28301992 -14.87549433 122.32376181 -17.15896606 123.36450195 C-18.62603366 124.03347589 -20.09289468 124.70290306 -21.55953979 125.37280273 C-23.58854639 126.29939477 -25.61839437 127.2241191 -27.6484375 128.1484375 C-29.38359619 128.94000244 -29.38359619 128.94000244 -31.15380859 129.74755859 C-34 131 -34 131 -37 132 C-37 92.73 -37 53.46 -37 13 C-7.20086705 -1.89956647 -7.20086705 -1.89956647 0 0 Z " fill="#FECCA8" transform="translate(465,511)"/>
</svg>
